<svg width="170" height="21" viewBox="0 0 170 21" fill="none" xmlns="http://www.w3.org/2000/svg">
<path d="M7.26526 6.90601L0.443359 13.8121L7.26526 20.634L14.1714 13.8121L7.26526 14.149V6.90601Z" fill="#055160"/>
<path d="M14.1714 13.728L21.0775 6.90611L14.1714 0L7.34949 6.90611L14.1714 6.48501V13.728Z" fill="#055160"/>
<path d="M7.34949 0.0842285H0.443359V6.90612H7.34949V0.0842285Z" fill="#055160"/>
<path d="M21.0775 13.6438H14.1714V20.4657H21.0775V13.6438Z" fill="#055160"/>
<path d="M0.443359 13.8123V20.6341H7.26526L0.443359 13.8123Z" fill="#055160"/>
<path d="M21.0775 6.90612V0.0842285H14.1714L21.0775 6.90612Z" fill="#055160"/>
<path d="M46.9298 7.04426C46.8843 6.47607 46.6712 6.03289 46.2906 5.71471C45.9156 5.39653 45.3445 5.23744 44.5775 5.23744C44.0888 5.23744 43.6883 5.2971 43.3758 5.41641C43.069 5.53005 42.8417 5.6863 42.694 5.88516C42.5462 6.08403 42.4695 6.3113 42.4638 6.56698C42.4525 6.77721 42.4894 6.96755 42.5746 7.13801C42.6656 7.30278 42.8076 7.45335 43.0008 7.58971C43.194 7.72039 43.4411 7.83971 43.7423 7.94767C44.0434 8.05562 44.4013 8.15221 44.8161 8.23744L46.2479 8.54426C47.2138 8.7488 48.0406 9.01869 48.7281 9.35392C49.4156 9.68914 49.9781 10.084 50.4156 10.5386C50.8531 10.9874 51.1741 11.4931 51.3786 12.0556C51.5888 12.6181 51.6968 13.2318 51.7025 13.8965C51.6968 15.0443 51.4099 16.0158 50.8417 16.8113C50.2735 17.6068 49.461 18.2119 48.4042 18.6266C47.3531 19.0414 46.0888 19.2488 44.6116 19.2488C43.0945 19.2488 41.7707 19.0244 40.64 18.5755C39.515 18.1266 38.64 17.4363 38.015 16.5045C37.3957 15.567 37.0832 14.3681 37.0775 12.9079H41.5775C41.6059 13.442 41.7394 13.8908 41.9781 14.2545C42.2167 14.6181 42.5519 14.8937 42.9837 15.0812C43.4212 15.2687 43.9411 15.3624 44.5434 15.3624C45.0491 15.3624 45.4724 15.2999 45.8133 15.1749C46.1542 15.0499 46.4127 14.8766 46.5888 14.6551C46.765 14.4335 46.8559 14.1806 46.8616 13.8965C46.8559 13.6295 46.7678 13.3965 46.5974 13.1977C46.4326 12.9931 46.1599 12.8113 45.7792 12.6522C45.3985 12.4874 44.8843 12.334 44.2366 12.192L42.4979 11.817C40.9525 11.4818 39.7337 10.9221 38.8417 10.138C37.9553 9.34823 37.515 8.27153 37.5207 6.90789C37.515 5.79994 37.8104 4.83119 38.407 4.00164C39.0093 3.16642 39.8417 2.51585 40.9042 2.04994C41.9724 1.58403 43.1968 1.35107 44.5775 1.35107C45.9866 1.35107 47.2053 1.58687 48.2337 2.05846C49.2621 2.53005 50.0548 3.19482 50.6116 4.05278C51.1741 4.90505 51.4582 5.90221 51.4638 7.04426H46.9298Z" fill="#055160"/>
<path d="M53.505 19.0443V1.58971H61.0391C62.3346 1.58971 63.4681 1.84539 64.4397 2.35676C65.4113 2.86812 66.167 3.58687 66.7067 4.51301C67.2465 5.43914 67.5164 6.52153 67.5164 7.76017C67.5164 9.01017 67.238 10.0926 66.6812 11.0073C66.13 11.9221 65.3545 12.6266 64.3545 13.121C63.3602 13.6153 62.1982 13.8624 60.8687 13.8624H56.3687V10.1806H59.9141C60.471 10.1806 60.9454 10.084 61.3374 9.89085C61.7352 9.69198 62.0391 9.41073 62.2494 9.0471C62.4653 8.68346 62.5732 8.25448 62.5732 7.76017C62.5732 7.26016 62.4653 6.83403 62.2494 6.48176C62.0391 6.1238 61.7352 5.85107 61.3374 5.66357C60.9454 5.47039 60.471 5.3738 59.9141 5.3738H58.2437V19.0443H53.505Z" fill="#055160"/>
<path d="M86.1641 10.317C86.1641 12.2602 85.7863 13.8994 85.0306 15.2346C84.2749 16.5641 83.255 17.5727 81.971 18.2602C80.6869 18.942 79.255 19.2829 77.6755 19.2829C76.0846 19.2829 74.6471 18.9391 73.363 18.2516C72.0846 17.5585 71.0675 16.5471 70.3119 15.2176C69.5619 13.8823 69.1869 12.2488 69.1869 10.317C69.1869 8.3738 69.5619 6.73744 70.3119 5.40789C71.0675 4.07267 72.0846 3.06414 73.363 2.38232C74.6471 1.69482 76.0846 1.35107 77.6755 1.35107C79.255 1.35107 80.6869 1.69482 81.971 2.38232C83.255 3.06414 84.2749 4.07267 85.0306 5.40789C85.7863 6.73744 86.1641 8.3738 86.1641 10.317ZM81.2891 10.317C81.2891 9.27153 81.1499 8.39085 80.8715 7.67494C80.5988 6.95335 80.1925 6.40789 79.6528 6.03857C79.1187 5.66357 78.4596 5.47607 77.6755 5.47607C76.8914 5.47607 76.2295 5.66357 75.6897 6.03857C75.1556 6.40789 74.7494 6.95335 74.471 7.67494C74.1982 8.39085 74.0619 9.27153 74.0619 10.317C74.0619 11.3624 74.1982 12.246 74.471 12.9676C74.7494 13.6835 75.1556 14.2289 75.6897 14.6039C76.2295 14.9732 76.8914 15.1579 77.6755 15.1579C78.4596 15.1579 79.1187 14.9732 79.6528 14.6039C80.1925 14.2289 80.5988 13.6835 80.8715 12.9676C81.1499 12.246 81.2891 11.3624 81.2891 10.317Z" fill="#055160"/>
<path d="M88.3566 19.0443V1.58971H95.8907C97.1861 1.58971 98.3197 1.82551 99.2913 2.2971C100.263 2.76869 101.019 3.44767 101.558 4.33403C102.098 5.22039 102.368 6.28289 102.368 7.52153C102.368 8.77153 102.09 9.82551 101.533 10.6835C100.982 11.5414 100.206 12.1891 99.206 12.6266C98.2117 13.0641 97.0498 13.2829 95.7202 13.2829H91.2202V9.60108H94.7657C95.3225 9.60108 95.7969 9.53289 96.189 9.39653C96.5867 9.25448 96.8907 9.03005 97.1009 8.72323C97.3168 8.41642 97.4248 8.01585 97.4248 7.52153C97.4248 7.02153 97.3168 6.61528 97.1009 6.30278C96.8907 5.9846 96.5867 5.75164 96.189 5.60391C95.7969 5.45051 95.3225 5.3738 94.7657 5.3738H93.0952V19.0443H88.3566ZM98.5839 11.0329L102.948 19.0443H97.7998L93.5384 11.0329H98.5839Z" fill="#055160"/>
<path d="M103.911 5.40789V1.58971H119.081V5.40789H113.831V19.0443H109.161V5.40789H103.911Z" fill="#055160"/>
<path d="M120.864 19.0443V1.58971H133.444V5.40789H125.603V8.40789H132.796V12.2261H125.603V15.2261H133.41V19.0443H120.864Z" fill="#055160"/>
<path d="M152.09 8.13517H147.283C147.249 7.73744 147.158 7.37664 147.01 7.05278C146.868 6.72892 146.669 6.45051 146.413 6.21755C146.163 5.97892 145.859 5.7971 145.501 5.6721C145.144 5.54142 144.737 5.47607 144.283 5.47607C143.487 5.47607 142.814 5.66926 142.263 6.05562C141.717 6.44198 141.303 6.99596 141.019 7.71755C140.74 8.43914 140.601 9.30562 140.601 10.317C140.601 11.3852 140.743 12.2801 141.027 13.0016C141.317 13.7176 141.734 14.2573 142.28 14.621C142.825 14.9789 143.482 15.1579 144.249 15.1579C144.686 15.1579 145.078 15.1039 145.425 14.996C145.771 14.8823 146.073 14.7204 146.328 14.5102C146.584 14.2999 146.791 14.0471 146.95 13.7516C147.115 13.4505 147.226 13.1124 147.283 12.7374L152.09 12.7715C152.033 13.5102 151.825 14.263 151.467 15.0301C151.109 15.7914 150.601 16.496 149.942 17.1437C149.288 17.7857 148.479 18.3028 147.513 18.6948C146.547 19.0869 145.425 19.2829 144.146 19.2829C142.544 19.2829 141.107 18.9391 139.834 18.2516C138.567 17.5641 137.564 16.5528 136.825 15.2176C136.092 13.8823 135.726 12.2488 135.726 10.317C135.726 8.3738 136.101 6.73744 136.851 5.40789C137.601 4.07267 138.612 3.06414 139.885 2.38232C141.158 1.69482 142.578 1.35107 144.146 1.35107C145.249 1.35107 146.263 1.50164 147.189 1.80278C148.115 2.10392 148.928 2.54426 149.626 3.1238C150.325 3.69767 150.888 4.40505 151.314 5.24596C151.74 6.08687 151.999 7.04994 152.09 8.13517Z" fill="#055160"/>
<path d="M154.239 19.0443V1.58971H158.978V8.40789H165.251V1.58971H169.989V19.0443H165.251V12.2261H158.978V19.0443H154.239Z" fill="#055160"/>
</svg>
